<svg xmlns="http://www.w3.org/2000/svg" xmlns:xlink="http://www.w3.org/1999/xlink" width="200" zoomAndPan="magnify" viewBox="0 0 150 52.499999" height="70" preserveAspectRatio="xMidYMid meet" version="1.0"><defs><g/><clipPath id="b5759078a8"><path d="M 136.597656 33.03125 L 145.578125 33.03125 L 145.578125 42.011719 L 136.597656 42.011719 Z M 136.597656 33.03125 " clip-rule="nonzero"/></clipPath><clipPath id="0c7a2b6b56"><path d="M 141.085938 33.03125 C 138.609375 33.03125 136.597656 35.042969 136.597656 37.519531 C 136.597656 40 138.609375 42.011719 141.085938 42.011719 C 143.566406 42.011719 145.578125 40 145.578125 37.519531 C 145.578125 35.042969 143.566406 33.03125 141.085938 33.03125 " clip-rule="nonzero"/></clipPath></defs><g fill="#000000" fill-opacity="1"><g transform="translate(6.737526, 34.563772)"><g><path d="M 1.046875 -23.671875 L 7.46875 -23.671875 C 9.195312 -23.671875 10.453125 -23.25 11.234375 -22.40625 C 12.015625 -21.5625 12.40625 -20.1875 12.40625 -18.28125 L 12.40625 -17.234375 C 12.40625 -14.972656 11.597656 -13.617188 9.984375 -13.171875 C 10.972656 -12.910156 11.664062 -12.3125 12.0625 -11.375 C 12.46875 -10.445312 12.671875 -9.207031 12.671875 -7.65625 C 12.671875 -5.144531 12.296875 -3.238281 11.546875 -1.9375 C 10.796875 -0.644531 9.4375 0 7.46875 0 L 1.046875 0 Z M 6.640625 -14.78125 C 7.046875 -14.78125 7.320312 -14.929688 7.46875 -15.234375 C 7.613281 -15.535156 7.6875 -15.960938 7.6875 -16.515625 L 7.6875 -18.875 C 7.6875 -19.644531 7.347656 -20.03125 6.671875 -20.03125 L 5.671875 -20.03125 L 5.671875 -14.78125 Z M 6.140625 -4.15625 C 7.378906 -4.15625 8 -4.742188 8 -5.921875 L 8 -8.875 C 8 -9.59375 7.890625 -10.132812 7.671875 -10.5 C 7.460938 -10.863281 7.09375 -11.046875 6.5625 -11.046875 L 5.671875 -11.046875 L 5.671875 -4.1875 Z M 6.140625 -4.15625 "/></g></g></g><g fill="#000000" fill-opacity="1"><g transform="translate(19.381074, 34.563772)"><g><path d="M 6.828125 0.21875 C 2.804688 0.21875 0.796875 -1.863281 0.796875 -6.03125 L 0.796875 -14.140625 C 0.796875 -16.046875 1.332031 -17.5625 2.40625 -18.6875 C 3.488281 -19.820312 4.960938 -20.390625 6.828125 -20.390625 C 8.703125 -20.390625 10.175781 -19.820312 11.25 -18.6875 C 12.332031 -17.5625 12.875 -16.046875 12.875 -14.140625 L 12.875 -6.03125 C 12.875 -1.863281 10.859375 0.21875 6.828125 0.21875 Z M 6.828125 -3.5 C 7.222656 -3.5 7.507812 -3.632812 7.6875 -3.90625 C 7.875 -4.1875 7.96875 -4.566406 7.96875 -5.046875 L 7.96875 -14.90625 C 7.96875 -16.082031 7.585938 -16.671875 6.828125 -16.671875 C 6.078125 -16.671875 5.703125 -16.082031 5.703125 -14.90625 L 5.703125 -5.046875 C 5.703125 -4.566406 5.789062 -4.1875 5.96875 -3.90625 C 6.15625 -3.632812 6.441406 -3.5 6.828125 -3.5 Z M 6.828125 -3.5 "/></g></g></g><g fill="#000000" fill-opacity="1"><g transform="translate(32.520453, 34.563772)"><g><path d="M 8.765625 0.21875 C 7.441406 0.21875 6.492188 -0.570312 5.921875 -2.15625 L 5.921875 0 L 0.96875 0 L 0.96875 -23.8125 L 5.921875 -23.8125 L 5.921875 -19.21875 C 6.691406 -20 7.59375 -20.390625 8.625 -20.390625 C 10.1875 -20.390625 11.304688 -19.925781 11.984375 -19 C 12.671875 -18.070312 13.015625 -16.738281 13.015625 -15 L 13.015625 -5.265625 C 13.015625 -3.609375 12.664062 -2.28125 11.96875 -1.28125 C 11.269531 -0.28125 10.203125 0.21875 8.765625 0.21875 Z M 7.140625 -3.53125 C 7.472656 -3.53125 7.707031 -3.632812 7.84375 -3.84375 C 7.976562 -4.050781 8.054688 -4.316406 8.078125 -4.640625 C 8.109375 -4.960938 8.125 -5.460938 8.125 -6.140625 L 8.125 -14.546875 C 8.125 -15.265625 8.0625 -15.796875 7.9375 -16.140625 C 7.8125 -16.492188 7.535156 -16.671875 7.109375 -16.671875 C 6.648438 -16.671875 6.335938 -16.492188 6.171875 -16.140625 C 6.003906 -15.796875 5.921875 -15.285156 5.921875 -14.609375 L 5.921875 -6.140625 C 5.921875 -5.265625 5.992188 -4.609375 6.140625 -4.171875 C 6.285156 -3.742188 6.617188 -3.53125 7.140625 -3.53125 Z M 7.140625 -3.53125 "/></g></g></g><g fill="#000000" fill-opacity="1"><g transform="translate(45.77002, 34.563772)"><g><path d="M 8.765625 0.21875 C 7.441406 0.21875 6.492188 -0.570312 5.921875 -2.15625 L 5.921875 0 L 0.96875 0 L 0.96875 -23.8125 L 5.921875 -23.8125 L 5.921875 -19.21875 C 6.691406 -20 7.59375 -20.390625 8.625 -20.390625 C 10.1875 -20.390625 11.304688 -19.925781 11.984375 -19 C 12.671875 -18.070312 13.015625 -16.738281 13.015625 -15 L 13.015625 -5.265625 C 13.015625 -3.609375 12.664062 -2.28125 11.96875 -1.28125 C 11.269531 -0.28125 10.203125 0.21875 8.765625 0.21875 Z M 7.140625 -3.53125 C 7.472656 -3.53125 7.707031 -3.632812 7.84375 -3.84375 C 7.976562 -4.050781 8.054688 -4.316406 8.078125 -4.640625 C 8.109375 -4.960938 8.125 -5.460938 8.125 -6.140625 L 8.125 -14.546875 C 8.125 -15.265625 8.0625 -15.796875 7.9375 -16.140625 C 7.8125 -16.492188 7.535156 -16.671875 7.109375 -16.671875 C 6.648438 -16.671875 6.335938 -16.492188 6.171875 -16.140625 C 6.003906 -15.796875 5.921875 -15.285156 5.921875 -14.609375 L 5.921875 -6.140625 C 5.921875 -5.265625 5.992188 -4.609375 6.140625 -4.171875 C 6.285156 -3.742188 6.617188 -3.53125 7.140625 -3.53125 Z M 7.140625 -3.53125 "/></g></g></g><g fill="#000000" fill-opacity="1"><g transform="translate(59.019584, 34.563772)"><g><path d="M 0.578125 0.296875 L 2.890625 0.296875 C 3.222656 0.296875 3.390625 0.160156 3.390625 -0.109375 C 3.390625 -0.234375 3.378906 -0.332031 3.359375 -0.40625 L 0.21875 -20.171875 L 4.828125 -20.171875 L 5.734375 -10.34375 L 6.171875 -5.3125 L 6.703125 -10.34375 L 7.765625 -20.171875 L 12.40625 -20.171875 L 8.65625 1.046875 C 8.53125 1.835938 8.269531 2.421875 7.875 2.796875 C 7.476562 3.171875 6.859375 3.359375 6.015625 3.359375 L 0.578125 3.359375 Z M 0.578125 0.296875 "/></g></g></g><g fill="#000000" fill-opacity="1"><g transform="translate(71.167288, 34.563772)"><g/></g></g><g fill="#000000" fill-opacity="1"><g transform="translate(77.061995, 34.563772)"><g><path d="M 6.671875 0.21875 C 4.523438 0.21875 2.972656 -0.3125 2.015625 -1.375 C 1.054688 -2.445312 0.578125 -4.164062 0.578125 -6.53125 L 0.578125 -8.84375 L 5.234375 -8.84375 L 5.234375 -5.890625 C 5.234375 -4.722656 5.609375 -4.140625 6.359375 -4.140625 C 6.785156 -4.140625 7.082031 -4.257812 7.25 -4.5 C 7.414062 -4.75 7.5 -5.171875 7.5 -5.765625 C 7.5 -6.535156 7.40625 -7.171875 7.21875 -7.671875 C 7.039062 -8.179688 6.804688 -8.601562 6.515625 -8.9375 C 6.234375 -9.28125 5.722656 -9.8125 4.984375 -10.53125 L 2.953125 -12.5625 C 1.367188 -14.113281 0.578125 -15.820312 0.578125 -17.6875 C 0.578125 -19.71875 1.039062 -21.257812 1.96875 -22.3125 C 2.894531 -23.363281 4.25 -23.890625 6.03125 -23.890625 C 8.164062 -23.890625 9.703125 -23.320312 10.640625 -22.1875 C 11.578125 -21.0625 12.046875 -19.296875 12.046875 -16.890625 L 7.21875 -16.890625 L 7.1875 -18.515625 C 7.1875 -18.828125 7.097656 -19.078125 6.921875 -19.265625 C 6.753906 -19.453125 6.515625 -19.546875 6.203125 -19.546875 C 5.835938 -19.546875 5.5625 -19.441406 5.375 -19.234375 C 5.1875 -19.035156 5.09375 -18.757812 5.09375 -18.40625 C 5.09375 -17.632812 5.535156 -16.835938 6.421875 -16.015625 L 9.171875 -13.375 C 9.816406 -12.75 10.347656 -12.15625 10.765625 -11.59375 C 11.191406 -11.03125 11.535156 -10.367188 11.796875 -9.609375 C 12.054688 -8.847656 12.1875 -7.941406 12.1875 -6.890625 C 12.1875 -4.554688 11.757812 -2.785156 10.90625 -1.578125 C 10.050781 -0.378906 8.640625 0.21875 6.671875 0.21875 Z M 6.671875 0.21875 "/></g></g></g><g fill="#000000" fill-opacity="1"><g transform="translate(89.209699, 34.563772)"><g><path d="M 0.9375 -21.53125 L 0.9375 -24.890625 L 5.765625 -24.890625 L 5.765625 -21.53125 Z M 0.9375 0 L 0.9375 -20.171875 L 5.765625 -20.171875 L 5.765625 0 Z M 0.9375 0 "/></g></g></g><g fill="#000000" fill-opacity="1"><g transform="translate(95.352327, 34.563772)"><g><path d="M 0.96875 -20.171875 L 5.78125 -20.171875 L 5.78125 -17.609375 C 5.988281 -18.441406 6.335938 -19.113281 6.828125 -19.625 C 7.328125 -20.132812 7.988281 -20.390625 8.8125 -20.390625 C 10.175781 -20.390625 11.179688 -19.972656 11.828125 -19.140625 C 12.484375 -18.304688 12.8125 -17.117188 12.8125 -15.578125 L 12.8125 0 L 8.078125 0 L 8.078125 -15.078125 C 8.078125 -15.515625 7.988281 -15.890625 7.8125 -16.203125 C 7.632812 -16.515625 7.363281 -16.671875 7 -16.671875 C 6.5 -16.671875 6.171875 -16.445312 6.015625 -16 C 5.859375 -15.550781 5.78125 -14.945312 5.78125 -14.1875 L 5.78125 0 L 0.96875 0 Z M 0.96875 -20.171875 "/></g></g></g><g fill="#000000" fill-opacity="1"><g transform="translate(108.546803, 34.563772)"><g><path d="M 6.390625 2.953125 C 4.960938 2.953125 3.835938 2.835938 3.015625 2.609375 C 2.203125 2.378906 1.398438 1.941406 0.609375 1.296875 L 2.265625 -1.484375 C 3.441406 -0.785156 4.609375 -0.4375 5.765625 -0.4375 C 6.515625 -0.4375 7.082031 -0.675781 7.46875 -1.15625 C 7.851562 -1.632812 8.046875 -2.285156 8.046875 -3.109375 L 8.046875 -4.21875 C 7.660156 -2.84375 6.640625 -2.15625 4.984375 -2.15625 C 3.609375 -2.15625 2.59375 -2.625 1.9375 -3.5625 C 1.289062 -4.5 0.96875 -5.742188 0.96875 -7.296875 L 0.96875 -14.890625 C 0.96875 -16.671875 1.265625 -18.03125 1.859375 -18.96875 C 2.453125 -19.914062 3.492188 -20.390625 4.984375 -20.390625 C 5.847656 -20.390625 6.53125 -20.171875 7.03125 -19.734375 C 7.539062 -19.304688 7.878906 -18.703125 8.046875 -17.921875 L 8.046875 -20.171875 L 12.984375 -20.171875 L 12.984375 -3.421875 C 12.984375 -1.160156 12.457031 0.460938 11.40625 1.453125 C 10.363281 2.453125 8.691406 2.953125 6.390625 2.953125 Z M 6.921875 -5.78125 C 7.671875 -5.78125 8.046875 -6.460938 8.046875 -7.828125 L 8.046875 -15.015625 C 8.046875 -15.421875 7.9375 -15.804688 7.71875 -16.171875 C 7.5 -16.546875 7.222656 -16.734375 6.890625 -16.734375 C 6.460938 -16.734375 6.175781 -16.582031 6.03125 -16.28125 C 5.882812 -15.976562 5.8125 -15.554688 5.8125 -15.015625 L 5.8125 -7.828125 C 5.8125 -7.222656 5.882812 -6.726562 6.03125 -6.34375 C 6.175781 -5.96875 6.472656 -5.78125 6.921875 -5.78125 Z M 6.921875 -5.78125 "/></g></g></g><g fill="#000000" fill-opacity="1"><g transform="translate(121.878997, 34.563772)"><g><path d="M 0.96875 -23.8125 L 5.921875 -23.8125 L 5.921875 -18.1875 C 6.441406 -19.65625 7.425781 -20.390625 8.875 -20.390625 C 10.238281 -20.390625 11.269531 -19.957031 11.96875 -19.09375 C 12.664062 -18.238281 13.015625 -17.054688 13.015625 -15.546875 L 13.015625 0 L 8.1875 0 L 8.1875 -15.234375 C 8.1875 -15.679688 8.082031 -16.039062 7.875 -16.3125 C 7.675781 -16.59375 7.382812 -16.734375 7 -16.734375 C 6.664062 -16.734375 6.398438 -16.585938 6.203125 -16.296875 C 6.015625 -16.015625 5.921875 -15.671875 5.921875 -15.265625 L 5.921875 0 L 0.96875 0 Z M 0.96875 -23.8125 "/></g></g></g><g clip-path="url(#b5759078a8)"><g clip-path="url(#0c7a2b6b56)"><path fill="#000000" d="M 136.597656 33.03125 L 145.578125 33.03125 L 145.578125 42.011719 L 136.597656 42.011719 Z M 136.597656 33.03125 " fill-opacity="1" fill-rule="nonzero"/></g></g></svg>