<svg xmlns="http://www.w3.org/2000/svg" xmlns:xlink="http://www.w3.org/1999/xlink" width="200" zoomAndPan="magnify" viewBox="0 0 150 52.499999" height="70" preserveAspectRatio="xMidYMid meet" version="1.0"><defs><g/><clipPath id="11bcc352be"><path d="M 137.375 33.03125 L 146.351562 33.03125 L 146.351562 42.011719 L 137.375 42.011719 Z M 137.375 33.03125 " clip-rule="nonzero"/></clipPath><clipPath id="2fab5d2e01"><path d="M 141.863281 33.03125 C 139.382812 33.03125 137.375 35.042969 137.375 37.519531 C 137.375 40 139.382812 42.011719 141.863281 42.011719 C 144.34375 42.011719 146.351562 40 146.351562 37.519531 C 146.351562 35.042969 144.34375 33.03125 141.863281 33.03125 " clip-rule="nonzero"/></clipPath></defs><g fill="#000000" fill-opacity="1"><g transform="translate(7.629667, 36.45781)"><g><path d="M 1.078125 -24.515625 L 7.734375 -24.515625 C 9.523438 -24.515625 10.820312 -24.078125 11.625 -23.203125 C 12.4375 -22.328125 12.84375 -20.898438 12.84375 -18.921875 L 12.84375 -17.84375 C 12.84375 -15.5 12.003906 -14.097656 10.328125 -13.640625 C 11.359375 -13.378906 12.082031 -12.757812 12.5 -11.78125 C 12.914062 -10.8125 13.125 -9.53125 13.125 -7.9375 C 13.125 -5.332031 12.734375 -3.359375 11.953125 -2.015625 C 11.179688 -0.671875 9.773438 0 7.734375 0 L 1.078125 0 Z M 6.875 -15.296875 C 7.289062 -15.296875 7.578125 -15.453125 7.734375 -15.765625 C 7.890625 -16.085938 7.96875 -16.53125 7.96875 -17.09375 L 7.96875 -19.546875 C 7.96875 -20.347656 7.613281 -20.75 6.90625 -20.75 L 5.875 -20.75 L 5.875 -15.296875 Z M 6.359375 -4.3125 C 7.640625 -4.3125 8.28125 -4.921875 8.28125 -6.140625 L 8.28125 -9.1875 C 8.28125 -9.9375 8.171875 -10.5 7.953125 -10.875 C 7.734375 -11.257812 7.347656 -11.453125 6.796875 -11.453125 L 5.875 -11.453125 L 5.875 -4.34375 Z M 6.359375 -4.3125 "/></g></g></g><g fill="#000000" fill-opacity="1"><g transform="translate(20.244457, 36.45781)"><g><path d="M 7.078125 0.234375 C 2.910156 0.234375 0.828125 -1.925781 0.828125 -6.25 L 0.828125 -14.640625 C 0.828125 -16.617188 1.382812 -18.191406 2.5 -19.359375 C 3.613281 -20.535156 5.140625 -21.125 7.078125 -21.125 C 9.015625 -21.125 10.539062 -20.535156 11.65625 -19.359375 C 12.769531 -18.191406 13.328125 -16.617188 13.328125 -14.640625 L 13.328125 -6.25 C 13.328125 -1.925781 11.242188 0.234375 7.078125 0.234375 Z M 7.078125 -3.625 C 7.472656 -3.625 7.765625 -3.765625 7.953125 -4.046875 C 8.148438 -4.335938 8.25 -4.726562 8.25 -5.21875 L 8.25 -15.4375 C 8.25 -16.65625 7.859375 -17.265625 7.078125 -17.265625 C 6.296875 -17.265625 5.90625 -16.65625 5.90625 -15.4375 L 5.90625 -5.21875 C 5.90625 -4.726562 6 -4.335938 6.1875 -4.046875 C 6.382812 -3.765625 6.679688 -3.625 7.078125 -3.625 Z M 7.078125 -3.625 "/></g></g></g><g fill="#000000" fill-opacity="1"><g transform="translate(33.372982, 36.45781)"><g><path d="M 9.078125 0.234375 C 7.703125 0.234375 6.722656 -0.585938 6.140625 -2.234375 L 6.140625 0 L 1 0 L 1 -24.671875 L 6.140625 -24.671875 L 6.140625 -19.890625 C 6.941406 -20.710938 7.875 -21.125 8.9375 -21.125 C 10.550781 -21.125 11.707031 -20.640625 12.40625 -19.671875 C 13.113281 -18.710938 13.46875 -17.332031 13.46875 -15.53125 L 13.46875 -5.453125 C 13.46875 -3.742188 13.101562 -2.367188 12.375 -1.328125 C 11.65625 -0.285156 10.554688 0.234375 9.078125 0.234375 Z M 7.390625 -3.65625 C 7.734375 -3.65625 7.972656 -3.765625 8.109375 -3.984375 C 8.253906 -4.203125 8.34375 -4.476562 8.375 -4.8125 C 8.40625 -5.144531 8.421875 -5.660156 8.421875 -6.359375 L 8.421875 -15.078125 C 8.421875 -15.816406 8.351562 -16.363281 8.21875 -16.71875 C 8.082031 -17.082031 7.796875 -17.265625 7.359375 -17.265625 C 6.890625 -17.265625 6.566406 -17.082031 6.390625 -16.71875 C 6.222656 -16.363281 6.140625 -15.832031 6.140625 -15.125 L 6.140625 -6.359375 C 6.140625 -5.453125 6.210938 -4.773438 6.359375 -4.328125 C 6.515625 -3.878906 6.859375 -3.65625 7.390625 -3.65625 Z M 7.390625 -3.65625 "/></g></g></g><g fill="#000000" fill-opacity="1"><g transform="translate(46.615667, 36.45781)"><g><path d="M 9.078125 0.234375 C 7.703125 0.234375 6.722656 -0.585938 6.140625 -2.234375 L 6.140625 0 L 1 0 L 1 -24.671875 L 6.140625 -24.671875 L 6.140625 -19.890625 C 6.941406 -20.710938 7.875 -21.125 8.9375 -21.125 C 10.550781 -21.125 11.707031 -20.640625 12.40625 -19.671875 C 13.113281 -18.710938 13.46875 -17.332031 13.46875 -15.53125 L 13.46875 -5.453125 C 13.46875 -3.742188 13.101562 -2.367188 12.375 -1.328125 C 11.65625 -0.285156 10.554688 0.234375 9.078125 0.234375 Z M 7.390625 -3.65625 C 7.734375 -3.65625 7.972656 -3.765625 8.109375 -3.984375 C 8.253906 -4.203125 8.34375 -4.476562 8.375 -4.8125 C 8.40625 -5.144531 8.421875 -5.660156 8.421875 -6.359375 L 8.421875 -15.078125 C 8.421875 -15.816406 8.351562 -16.363281 8.21875 -16.71875 C 8.082031 -17.082031 7.796875 -17.265625 7.359375 -17.265625 C 6.890625 -17.265625 6.566406 -17.082031 6.390625 -16.71875 C 6.222656 -16.363281 6.140625 -15.832031 6.140625 -15.125 L 6.140625 -6.359375 C 6.140625 -5.453125 6.210938 -4.773438 6.359375 -4.328125 C 6.515625 -3.878906 6.859375 -3.65625 7.390625 -3.65625 Z M 7.390625 -3.65625 "/></g></g></g><g fill="#000000" fill-opacity="1"><g transform="translate(59.858353, 36.45781)"><g><path d="M 0.59375 0.3125 L 3 0.3125 C 3.34375 0.3125 3.515625 0.171875 3.515625 -0.109375 C 3.515625 -0.242188 3.503906 -0.347656 3.484375 -0.421875 L 0.234375 -20.890625 L 5 -20.890625 L 5.9375 -10.703125 L 6.390625 -5.515625 L 6.9375 -10.703125 L 8.046875 -20.890625 L 12.84375 -20.890625 L 8.96875 1.078125 C 8.832031 1.898438 8.554688 2.503906 8.140625 2.890625 C 7.734375 3.285156 7.09375 3.484375 6.21875 3.484375 L 0.59375 3.484375 Z M 0.59375 0.3125 "/></g></g></g><g fill="#000000" fill-opacity="1"><g transform="translate(71.959413, 36.45781)"><g/></g></g><g fill="#000000" fill-opacity="1"><g transform="translate(77.581728, 36.45781)"><g><path d="M 6.90625 0.234375 C 4.675781 0.234375 3.066406 -0.316406 2.078125 -1.421875 C 1.085938 -2.523438 0.59375 -4.304688 0.59375 -6.765625 L 0.59375 -9.15625 L 5.421875 -9.15625 L 5.421875 -6.109375 C 5.421875 -4.890625 5.8125 -4.28125 6.59375 -4.28125 C 7.03125 -4.28125 7.332031 -4.40625 7.5 -4.65625 C 7.675781 -4.914062 7.765625 -5.351562 7.765625 -5.96875 C 7.765625 -6.769531 7.664062 -7.429688 7.46875 -7.953125 C 7.28125 -8.472656 7.039062 -8.910156 6.75 -9.265625 C 6.457031 -9.617188 5.929688 -10.164062 5.171875 -10.90625 L 3.046875 -13.015625 C 1.410156 -14.617188 0.59375 -16.390625 0.59375 -18.328125 C 0.59375 -20.421875 1.070312 -22.015625 2.03125 -23.109375 C 3 -24.203125 4.40625 -24.75 6.25 -24.75 C 8.457031 -24.75 10.046875 -24.160156 11.015625 -22.984375 C 11.984375 -21.816406 12.46875 -19.988281 12.46875 -17.5 L 7.484375 -17.5 L 7.453125 -19.1875 C 7.453125 -19.507812 7.359375 -19.765625 7.171875 -19.953125 C 6.992188 -20.140625 6.742188 -20.234375 6.421875 -20.234375 C 6.046875 -20.234375 5.757812 -20.128906 5.5625 -19.921875 C 5.375 -19.710938 5.28125 -19.425781 5.28125 -19.0625 C 5.28125 -18.269531 5.738281 -17.441406 6.65625 -16.578125 L 9.5 -13.84375 C 10.164062 -13.195312 10.71875 -12.582031 11.15625 -12 C 11.59375 -11.425781 11.945312 -10.742188 12.21875 -9.953125 C 12.488281 -9.160156 12.625 -8.222656 12.625 -7.140625 C 12.625 -4.722656 12.179688 -2.890625 11.296875 -1.640625 C 10.410156 -0.390625 8.945312 0.234375 6.90625 0.234375 Z M 6.90625 0.234375 "/></g></g></g><g fill="#000000" fill-opacity="1"><g transform="translate(89.682788, 36.45781)"><g><path d="M 0.96875 -22.296875 L 0.96875 -25.78125 L 5.96875 -25.78125 L 5.96875 -22.296875 Z M 0.96875 0 L 0.96875 -20.890625 L 5.96875 -20.890625 L 5.96875 0 Z M 0.96875 0 "/></g></g></g><g fill="#000000" fill-opacity="1"><g transform="translate(95.561968, 36.45781)"><g><path d="M 1 -20.890625 L 6 -20.890625 L 6 -18.234375 C 6.207031 -19.097656 6.566406 -19.796875 7.078125 -20.328125 C 7.585938 -20.859375 8.273438 -21.125 9.140625 -21.125 C 10.546875 -21.125 11.585938 -20.691406 12.265625 -19.828125 C 12.941406 -18.960938 13.28125 -17.726562 13.28125 -16.125 L 13.28125 0 L 8.359375 0 L 8.359375 -15.609375 C 8.359375 -16.066406 8.269531 -16.457031 8.09375 -16.78125 C 7.914062 -17.101562 7.632812 -17.265625 7.25 -17.265625 C 6.738281 -17.265625 6.398438 -17.03125 6.234375 -16.5625 C 6.078125 -16.101562 6 -15.484375 6 -14.703125 L 6 0 L 1 0 Z M 1 -20.890625 "/></g></g></g><g fill="#000000" fill-opacity="1"><g transform="translate(108.747568, 36.45781)"><g><path d="M 6.625 3.046875 C 5.132812 3.046875 3.96875 2.925781 3.125 2.6875 C 2.28125 2.457031 1.445312 2.007812 0.625 1.34375 L 2.34375 -1.546875 C 3.5625 -0.816406 4.769531 -0.453125 5.96875 -0.453125 C 6.75 -0.453125 7.335938 -0.695312 7.734375 -1.1875 C 8.128906 -1.6875 8.328125 -2.363281 8.328125 -3.21875 L 8.328125 -4.375 C 7.929688 -2.945312 6.878906 -2.234375 5.171875 -2.234375 C 3.742188 -2.234375 2.691406 -2.71875 2.015625 -3.6875 C 1.335938 -4.65625 1 -5.945312 1 -7.5625 L 1 -15.421875 C 1 -17.265625 1.304688 -18.675781 1.921875 -19.65625 C 2.546875 -20.632812 3.628906 -21.125 5.171875 -21.125 C 6.066406 -21.125 6.773438 -20.898438 7.296875 -20.453125 C 7.816406 -20.003906 8.160156 -19.375 8.328125 -18.5625 L 8.328125 -20.890625 L 13.453125 -20.890625 L 13.453125 -3.546875 C 13.453125 -1.203125 12.90625 0.476562 11.8125 1.5 C 10.726562 2.53125 9 3.046875 6.625 3.046875 Z M 7.171875 -6 C 7.941406 -6 8.328125 -6.703125 8.328125 -8.109375 L 8.328125 -15.5625 C 8.328125 -15.976562 8.210938 -16.375 7.984375 -16.75 C 7.765625 -17.132812 7.484375 -17.328125 7.140625 -17.328125 C 6.703125 -17.328125 6.40625 -17.171875 6.25 -16.859375 C 6.09375 -16.546875 6.015625 -16.113281 6.015625 -15.5625 L 6.015625 -8.109375 C 6.015625 -7.484375 6.09375 -6.972656 6.25 -6.578125 C 6.40625 -6.191406 6.710938 -6 7.171875 -6 Z M 7.171875 -6 "/></g></g></g><g fill="#000000" fill-opacity="1"><g transform="translate(122.075879, 36.45781)"><g><path d="M 1 -24.671875 L 6.140625 -24.671875 L 6.140625 -18.84375 C 6.671875 -20.363281 7.6875 -21.125 9.1875 -21.125 C 10.59375 -21.125 11.65625 -20.675781 12.375 -19.78125 C 13.101562 -18.882812 13.46875 -17.65625 13.46875 -16.09375 L 13.46875 0 L 8.484375 0 L 8.484375 -15.78125 C 8.484375 -16.238281 8.375 -16.609375 8.15625 -16.890625 C 7.945312 -17.179688 7.644531 -17.328125 7.25 -17.328125 C 6.90625 -17.328125 6.632812 -17.175781 6.4375 -16.875 C 6.238281 -16.582031 6.140625 -16.226562 6.140625 -15.8125 L 6.140625 0 L 1 0 Z M 1 -24.671875 "/></g></g></g><g clip-path="url(#11bcc352be)"><g clip-path="url(#2fab5d2e01)"><path fill="#000000" d="M 137.375 33.03125 L 146.351562 33.03125 L 146.351562 42.011719 L 137.375 42.011719 Z M 137.375 33.03125 " fill-opacity="1" fill-rule="nonzero"/></g></g></svg>